<?xml version="1.0" encoding="utf-8"?>
<!-- Generator: Adobe Illustrator 18.1.1, SVG Export Plug-In . SVG Version: 6.00 Build 0)  -->
<svg version="1.0" id="Layer_1" xmlns="http://www.w3.org/2000/svg" xmlns:xlink="http://www.w3.org/1999/xlink" x="0px" y="0px"
	 viewBox="0 0 250 250" enable-background="new 0 0 250 250" xml:space="preserve">
<g display="none">
	<path display="inline" fill="#FFF0B6" d="M228.2,124.8c0.3,56.7-46,103.2-102.9,103.4C68.5,228.4,22,182.4,21.8,125.8
		c-0.2-57.4,45.4-103.6,102.6-104C181.3,21.4,227.9,67.7,228.2,124.8 M154.6,138.1c1.4-8.8,2.8-17.4,4.2-26.5h-24.9
		c0-7.2-0.2-13.9,0.1-20.5c0.2-4.7,3.2-7.8,7.4-9.2c2.5-0.9,5.3-1.1,8-1.3c3.3-0.2,6.7-0.1,10-0.1V57.7c-6.4,0-12.5-0.1-18.6,0
		c-4,0.1-8-0.2-11.8,0.5c-12.9,2.6-22.1,14-23.2,28.9c-0.5,6.9-0.2,13.8-0.3,20.8c0,1.2-0.1,2.4-0.2,3.9H82v26.4h23.6v64.6h28.3
		v-64.7H154.6z"/>
	<path display="inline" d="M154.6,138.1h-20.7v64.7h-28.3v-64.6H82v-26.4h23.2c0.1-1.5,0.2-2.7,0.2-3.9c0.1-6.9-0.2-13.9,0.3-20.8
		c1-14.8,10.2-26.3,23.2-28.9c3.8-0.8,7.9-0.5,11.8-0.5c6.1-0.1,12.2,0,18.6,0v22.7c-3.3,0-6.7-0.2-10,0.1c-2.7,0.2-5.5,0.4-8,1.3
		c-4.3,1.5-7.2,4.6-7.4,9.2c-0.3,6.7-0.1,13.4-0.1,20.5h24.9C157.4,120.7,156,129.2,154.6,138.1"/>
</g>
<g display="none">
	<path display="inline" fill="#FFF0B6" d="M228.2,125.1c-0.1,56.8-46.5,103.1-103.3,103C67.9,228.1,21.7,181.8,21.8,125
		C21.9,67.7,68.1,21.7,125.2,21.8C182.2,22,228.3,68.2,228.2,125.1 M62.6,190.1c1.4-0.1,2.3-0.1,3.1-0.2c9.5-1.6,19-3.3,28.5-4.9
		c1.6-0.3,3.5-0.3,4.9,0.3c8.7,3.5,17.6,5.1,26.9,5c27.5-0.3,52-18.1,61-44.7c8.7-25.8-0.1-55.4-21.5-72
		c-23.6-18.3-56.4-18.8-79.8-1.1C61.8,90.6,53,122,64.6,149.9c1.9,4.5,2.7,8.7,1.7,13.4c-0.5,2.5-0.8,5.2-1.1,7.7
		C64.3,177.3,63.5,183.6,62.6,190.1"/>
	<path display="inline" d="M62.6,190.1c0.9-6.5,1.7-12.8,2.5-19.1c0.3-2.6,0.6-5.2,1.1-7.7c1-4.7,0.2-8.9-1.7-13.4
		C53,122,61.8,90.6,85.8,72.5c23.4-17.7,56.2-17.2,79.8,1.1c21.4,16.6,30.2,46.2,21.5,72c-9,26.6-33.5,44.4-61,44.7
		c-9.3,0.1-18.3-1.5-26.9-5c-1.5-0.6-3.3-0.6-4.9-0.3c-9.5,1.5-19,3.3-28.5,4.9C64.9,190,64,190,62.6,190.1 M76.1,176.8
		c7.1-1.2,13.4-2.4,19.8-3.4c1.7-0.2,3.6,0,5.2,0.7c6.5,2.9,13.2,4.7,20.3,5.3c29.4,2.2,56.5-21.2,58-50.3c1.7-31.7-22-58-52.8-58.7
		c-42.2-0.9-69.4,43.4-49.4,80.5c1.4,2.6,1.8,4.9,1.4,7.7C77.7,164.5,77,170.3,76.1,176.8"/>
	<path display="inline" fill="#FFF0B6" d="M76.1,176.8c0.9-6.5,1.5-12.3,2.4-18.1c0.4-2.8,0-5.2-1.4-7.7
		c-20-37.1,7.2-81.4,49.4-80.5c30.8,0.7,54.4,27,52.8,58.7c-1.5,29.1-28.6,52.4-58,50.3c-7.1-0.5-13.8-2.4-20.3-5.3
		c-1.5-0.7-3.5-0.9-5.2-0.7C89.5,174.4,83.2,175.6,76.1,176.8 M92.9,111.5c0.8,2.4,1.9,6.6,3.6,10.4c8.7,19.1,23.3,31.1,43.9,35.8
		c4,0.9,7.4-0.3,10.2-3.3c1.6-1.7,3.1-3.6,4.6-5.5c1.8-2.3,1.4-4.5-0.8-6.2c-2.5-1.9-4.9-4.1-7.7-5.5c-1.4-0.7-3.8-0.5-5.2,0.3
		c-2.2,1.3-3.8,3.6-5.8,5.1c-1,0.7-2.9,1.3-3.8,0.8c-9.9-5.4-18-12.5-22.8-23c-0.9-2.1-1.1-3.6,1-5.3c2.3-1.8,3.6-4.6,2.7-7.6
		c-1.1-3.7-2.6-7.3-4.2-10.8c-1.2-2.8-3.6-3.5-6.2-1.9C96.6,98,93.2,102.8,92.9,111.5"/>
	<path display="inline" d="M92.9,111.5c0.3-8.6,3.7-13.4,9.4-16.7c2.6-1.5,5-0.9,6.2,1.9c1.6,3.5,3,7.1,4.2,10.8
		c0.9,3-0.3,5.7-2.7,7.6c-2.1,1.6-1.9,3.2-1,5.3c4.8,10.5,12.9,17.7,22.8,23c0.9,0.5,2.8-0.1,3.8-0.8c2.1-1.5,3.7-3.8,5.8-5.1
		c1.4-0.8,3.8-1,5.2-0.3c2.8,1.4,5.2,3.6,7.7,5.5c2.3,1.8,2.6,3.9,0.8,6.2c-1.5,1.9-3,3.7-4.6,5.5c-2.8,3-6.2,4.2-10.2,3.3
		c-20.6-4.6-35.1-16.7-43.9-35.8C94.7,118,93.7,113.8,92.9,111.5"/>
</g>
<g display="none">
	<path display="inline" fill="#FFF0B6" d="M228.1,121.2c2,57.1-42.3,104.9-99.1,107c-57.1,2.1-105.1-42.5-107.1-99.4
		c-2-57,42.9-105.1,99.7-106.9C178.5,20,226.1,64.4,228.1,121.2 M126.9,190.9c10-0.3,20-0.6,29.9-1.1c20.8-0.9,35.7-16.6,35.1-37.3
		c-0.5-20.1-1.2-40.2-2.1-60.2c-0.9-19.7-17.3-34.7-37-34.1c-20.2,0.6-40.4,1.3-60.6,2.1c-19.8,0.8-35,17.2-34.3,37.1
		c0.7,19.5,1.4,39,2,58.5c0.7,21.9,16.6,36.7,38.5,35.9C108.1,191.5,117.5,191.2,126.9,190.9"/>
	<path display="inline" d="M126.9,190.9c-9.4,0.3-18.8,0.7-28.2,1c-22,0.7-37.8-14-38.5-35.9c-0.7-19.5-1.3-39-2-58.5
		c-0.7-19.9,14.4-36.3,34.3-37.1c20.2-0.8,40.4-1.5,60.6-2.1c19.7-0.6,36.1,14.3,37,34.1c0.9,20.1,1.6,40.1,2.1,60.2
		c0.5,20.8-14.4,36.4-35.1,37.3C146.9,190.2,136.9,190.5,126.9,190.9 M179.4,123.1c-0.3-9.6-0.7-19.3-1-28.9
		c-0.5-14.8-11.3-24.9-26.2-24.4c-19.4,0.6-38.8,1.3-58.2,2c-14.6,0.5-24.8,11.3-24.4,25.9c0.6,19.5,1.2,39,2,58.5
		c0.6,14.4,11.4,24.5,25.8,24.1c19.6-0.6,39.2-1.3,58.8-2c14.4-0.6,24.5-11.5,24-25.9C180.1,142.6,179.7,132.9,179.4,123.1"/>
	<path display="inline" fill="#FFF0B6" d="M179.4,123.1c0.3,9.8,0.7,19.5,1,29.3c0.5,14.4-9.6,25.3-24,25.9
		c-19.6,0.8-39.2,1.4-58.8,2c-14.5,0.4-25.3-9.6-25.8-24.1c-0.8-19.5-1.5-39-2-58.5c-0.4-14.6,9.8-25.3,24.4-25.9
		c19.4-0.7,38.8-1.4,58.2-2c14.8-0.5,25.6,9.6,26.2,24.4C178.7,103.8,179,113.5,179.4,123.1 M126.5,160.9
		c19.9-0.8,35.7-17.8,34.8-37.5c-0.9-19.5-18.1-35.1-37.7-34.3c-19.5,0.8-35,17.6-34.3,37.2C90,146.2,106.6,161.7,126.5,160.9
		 M159.1,81c-4.3,0.1-7.7,3.6-7.6,7.9c0.1,4.1,3.6,7.4,7.8,7.4c4.2-0.1,7.8-3.7,7.6-7.9C166.7,84.3,163.1,80.9,159.1,81"/>
	<path display="inline" d="M126.5,160.9c-19.8,0.8-36.5-14.7-37.2-34.6c-0.7-19.6,14.8-36.5,34.3-37.2c19.7-0.8,36.8,14.8,37.7,34.3
		C162.2,143.1,146.4,160.2,126.5,160.9 M101.5,125.9c0.5,13.2,11.5,23.4,24.6,22.9c12.9-0.5,23-11.6,22.5-24.6
		c-0.5-12.9-11.6-23.1-24.6-22.5C111.2,102.2,101,113.2,101.5,125.9"/>
	<path display="inline" d="M159.1,81c4-0.1,7.7,3.4,7.8,7.4c0.2,4.2-3.4,7.8-7.6,7.9c-4.2,0.1-7.6-3.2-7.8-7.4
		C151.3,84.6,154.8,81,159.1,81"/>
	<path display="inline" fill="#FFF0B6" d="M101.5,125.9c-0.5-12.7,9.7-23.7,22.5-24.3c13-0.6,24.1,9.6,24.6,22.5
		c0.5,13.1-9.6,24.1-22.5,24.6C113,149.3,102,139.1,101.5,125.9"/>
</g>
<g>
	<path fill="#FFF0B6" d="M230.2,125.2c0.2,57.4-46.9,105.4-106.2,105c-57.2-0.4-104.2-47.7-104.2-105.3
		C19.9,66.7,67.1,19.7,125.3,19.8C183.4,19.9,230.2,66.9,230.2,125.2 M109.6,75.1c-5.1,0.2-10.2,0.4-15.3,0.7
		c-11.7,0.7-23.2,2.5-34.4,5.9c-5.9,1.8-8.9,7-7.4,12.5c1.6,5.5,7.6,8.4,13.1,6.7c10.7-3.3,21.7-4.7,32.9-5.3
		c15.5-0.8,30.9,0,46.2,2.8c14.9,2.7,29.3,7.1,42.5,14.7c1.4,0.8,3,1.3,4.6,1.5c4.5,0.4,8.6-2.5,10.1-6.6c1.5-4.4,0.2-9.4-4-11.5
		c-7-3.7-14.1-7.4-21.6-10.2C154.9,78.2,132.5,75.2,109.6,75.1 M104.9,111.4c-3.5,0.2-9.8,0.3-15.9,1.2c-8,1.2-15.9,3-23.8,4.9
		c-4.2,1-6.5,5.1-5.8,9.1c0.8,5.3,5.7,8.3,11.1,6.7c18.5-5.4,37.3-6.2,56.3-3.7c17.2,2.2,33.5,7.3,48.4,16.2c4,2.4,8.9,1,11.3-3
		c2.3-3.8,1.2-8.7-2.6-11.2c-1.5-1-3-1.9-4.6-2.7C156.9,116.8,132.9,111.7,104.9,111.4 M107.7,145.9c-12.4-0.1-25.5,1.7-38.4,4.7
		c-4.2,1-6.4,4.5-5.5,8.3c0.9,3.7,4.5,5.7,8.5,4.8c9.9-2.2,19.9-3.7,30-4.2c15.4-0.8,30.5,0.9,44.9,6.3c5.8,2.2,11.3,5.3,16.9,8.1
		c2.5,1.2,4.9,1.5,7.2-0.1c2.3-1.5,3.3-3.7,3.1-6.3c-0.3-2.8-2.2-4.4-4.5-5.8C151,150.5,130.4,145.8,107.7,145.9"/>
	<path d="M109.6,75.1c22.8,0.1,45.2,3.1,66.7,11.1c7.4,2.7,14.5,6.5,21.6,10.2c4.1,2.2,5.5,7.2,4,11.5c-1.5,4.2-5.6,7-10.1,6.6
		c-1.6-0.1-3.2-0.7-4.6-1.5c-13.2-7.6-27.6-12-42.5-14.7c-15.3-2.8-30.7-3.6-46.2-2.8c-11.1,0.6-22.2,2-32.9,5.3
		c-5.5,1.7-11.5-1.2-13.1-6.7c-1.6-5.5,1.5-10.7,7.4-12.5c11.2-3.4,22.8-5.2,34.4-5.9C99.4,75.5,104.5,75.3,109.6,75.1"/>
	<path d="M104.9,111.4c28,0.3,52,5.4,74.3,17.5c1.6,0.8,3.1,1.7,4.6,2.7c3.8,2.6,4.9,7.4,2.6,11.2c-2.4,4-7.3,5.4-11.3,3
		c-15-9-31.3-14-48.4-16.2c-19-2.5-37.8-1.7-56.3,3.7c-5.4,1.6-10.3-1.4-11.1-6.7c-0.6-4,1.7-8.1,5.8-9.1c7.9-1.9,15.8-3.7,23.8-4.9
		C95.1,111.7,101.4,111.7,104.9,111.4"/>
	<path d="M107.7,145.9c22.7-0.1,43.3,4.6,62.3,15.8c2.3,1.4,4.2,3,4.5,5.8c0.3,2.7-0.8,4.9-3.1,6.3c-2.4,1.6-4.7,1.3-7.2,0.1
		c-5.6-2.8-11.1-5.9-16.9-8.1c-14.5-5.4-29.5-7.1-44.9-6.3c-10.1,0.5-20.1,2-30,4.2c-4.1,0.9-7.6-1.1-8.5-4.8
		c-0.9-3.8,1.3-7.3,5.5-8.3C82.2,147.6,95.3,145.8,107.7,145.9"/>
</g>
</svg>
